<svg width="30" height="31" viewBox="0 0 30 31" fill="none" xmlns="http://www.w3.org/2000/svg">
<path d="M10 22.2229V9.2854C10 8.93124 10.125 8.63415 10.375 8.39415C10.625 8.15415 10.9167 8.03457 11.25 8.0354C11.3542 8.0354 11.4637 8.05082 11.5787 8.08165C11.6937 8.11249 11.8029 8.15957 11.9062 8.2229L22.0937 14.6917C22.2812 14.8167 22.4221 14.9729 22.5163 15.1604C22.6104 15.3479 22.6571 15.5458 22.6562 15.7542C22.6554 15.9625 22.6088 16.1604 22.5163 16.3479C22.4238 16.5354 22.2829 16.6917 22.0937 16.8167L11.9062 23.2854C11.8021 23.3479 11.6929 23.395 11.5787 23.4267C11.4646 23.4583 11.355 23.4737 11.25 23.4729C10.9167 23.4729 10.625 23.3529 10.375 23.1129C10.125 22.8729 10 22.5762 10 22.2229ZM12.5 19.9417L19.0625 15.7542L12.5 11.5667V19.9417Z" fill="#1B4045"/>
</svg>
