<svg width="24" height="24" viewBox="0 0 24 24" fill="none" xmlns="http://www.w3.org/2000/svg">
<g clip-path="url(#clip0_3289_1476)">
<path d="M23.1105 13.9901C24.2046 12.8948 24.2046 11.1064 23.1105 10.0099L23.0666 9.96564L13.4331 19.605C13.328 19.7093 13.2137 19.8015 13.0926 19.8815C12.9047 20.0056 12.6995 20.0986 12.4837 20.1599C12.2896 20.2149 12.087 20.2444 11.8796 20.2445L11.6801 20.2435C11.5798 20.2345 11.4799 20.2182 11.3815 20.1953C11.1959 20.1521 11.015 20.0837 10.8435 19.9913C10.6621 19.8933 10.4916 19.7685 10.3384 19.6152C10.3354 19.6121 10.3323 19.6087 10.3294 19.6054C10.3266 19.6029 10.3236 19.6003 10.321 19.5976L3.98202 13.247C3.56658 12.8308 3.33673 12.282 3.33673 11.6937C3.33673 11.1073 3.56658 10.5557 3.98202 10.1413L5.85732 8.26882C6.26532 7.86154 6.82925 7.63042 7.40965 7.62842C7.9875 7.62842 8.55359 7.86434 8.95887 8.27426L11.8815 11.2016L18.0903 4.98791L13.9567 0.854348C12.8623 -0.238383 11.071 -0.238383 9.97568 0.854268L0.820868 10.0099C-0.273543 11.1035 -0.273703 12.8948 0.820868 13.9901L9.97752 23.1456C11.071 24.2383 12.8623 24.2383 13.9566 23.1457L23.1105 13.9901Z" fill="white"/>
<path d="M9.07563 10.4248L8.48155 9.83071C8.48139 9.83063 8.48139 9.83039 8.48107 9.83015L7.91922 9.2683C7.61122 8.9603 7.11361 8.95838 6.80281 9.26174L6.80217 9.26142L4.92967 11.1277C4.62031 11.4358 4.61887 11.9223 4.92799 12.2305L9.891 17.1877L11.3359 18.6306C11.6469 18.9414 12.1554 18.9412 12.4665 18.6307C12.4669 18.6305 12.467 18.6302 12.4672 18.63L13.8767 17.2189L23.7697 7.31492C24.0735 7.0102 24.0775 6.47291 23.7774 6.16371C23.7751 6.16123 23.773 6.15859 23.7707 6.15619L22.8408 5.20354L21.888 4.27361C21.6193 4.00529 21.1706 3.97289 20.8567 4.17281C20.8111 4.20177 20.7683 4.23569 20.7294 4.27449L12.2547 12.7395L11.8193 13.1751L11.2694 12.6253L9.07499 10.4254L9.07563 10.4248Z" fill="white"/>
</g>
<defs>
<clipPath id="clip0_3289_1476">
<rect width="24" height="24" fill="white"/>
</clipPath>
</defs>
</svg>
