<svg width="54" height="54" viewBox="0 0 54 54" fill="none" xmlns="http://www.w3.org/2000/svg">
<path d="M8.20925 45.501H7.56125C7.31825 45.501 7.15625 45.663 7.15625 45.906C7.15625 46.149 7.31825 46.311 7.56125 46.311H8.20925C8.45225 46.311 8.61425 46.149 8.61425 45.906C8.61425 45.663 8.45225 45.501 8.20925 45.501Z" fill="white"/>
<path d="M46.4414 45.501H45.3884C45.1454 45.501 44.9834 45.663 44.9834 45.906C44.9834 46.149 45.1454 46.311 45.3884 46.311H46.4414C46.6844 46.311 46.8464 46.149 46.8464 45.906C46.8464 45.663 46.6439 45.501 46.4414 45.501Z" fill="white"/>
<path d="M21.0874 16.6251C20.1964 16.6251 19.5079 17.3136 19.5079 18.2046C19.5079 19.0956 20.1964 19.7841 21.0874 19.7841H33.1969C34.0879 19.7841 34.7764 19.0956 34.7764 18.2046C34.7764 17.3136 34.0879 16.6251 33.1969 16.6251H32.3869C32.9539 15.0456 33.8854 13.5876 35.0599 12.1701C32.9134 11.0361 31.2124 9.74015 31.7389 7.71515L29.6329 11.6841L29.9569 7.71515C28.0534 9.57815 26.1499 9.53765 24.2464 7.71515L24.6514 13.0611L21.8164 8.40365C21.9784 10.2261 20.8849 11.4816 18.8599 12.3321C20.0749 13.6686 20.9659 15.0456 21.4519 16.6251H21.0874Z" fill="white"/>
<path d="M28.9456 34.2837C28.9456 33.2307 28.0951 32.3397 27.0016 32.3397C26.3941 32.3397 25.8676 31.8537 25.8676 31.2057C25.8676 30.5577 26.3536 30.0717 27.0016 30.0717C27.6496 30.0717 28.1356 30.5577 28.1356 31.2057C28.1356 31.4487 28.2976 31.6107 28.5406 31.6107C28.7836 31.6107 28.9456 31.4487 28.9456 31.2057C28.9456 30.2742 28.2976 29.5047 27.4066 29.3427V28.8162C27.4066 28.6137 27.2041 28.4112 27.0016 28.4112C26.7586 28.4112 26.5966 28.6137 26.5966 28.8162V29.3427C25.7461 29.5452 25.0981 30.3147 25.0981 31.2057C25.0981 32.2587 25.9486 33.1497 27.0421 33.1497C27.6496 33.1497 28.1761 33.6357 28.1761 34.2837C28.1761 34.8912 27.6901 35.4177 27.0421 35.4177C26.3941 35.4177 25.9081 34.9317 25.9081 34.2837C25.9081 34.0407 25.7461 33.8787 25.5031 33.8787C25.2601 33.8787 25.0981 34.0407 25.0981 34.2837C25.0981 35.2152 25.7461 35.9847 26.5966 36.1467V36.6732C26.5966 36.8757 26.7991 37.0782 27.0016 37.0782C27.2446 37.0782 27.4066 36.8757 27.4066 36.6732V36.1467C28.2571 35.9847 28.9456 35.2152 28.9456 34.2837Z" fill="white"/>
<path d="M38.3003 36.9558H40.8113V39.3858H38.3003V36.9558Z" fill="white"/>
<path d="M43.4849 43.4761H41.6219V45.5011H40.8119V43.4761H38.3009V45.5011H37.4909V43.4761H34.9799V45.5011H34.1699V43.4761H32.3069C31.9019 43.4761 31.5374 43.8001 31.5374 44.2456V45.1366C31.5374 45.2581 31.5779 45.3796 31.6184 45.5011H29.9984L30.7274 45.3796C30.7274 45.2986 30.7274 45.2176 30.7274 45.1366V44.2456C30.7274 43.8001 30.9299 43.3546 31.2539 43.0711C30.9299 42.7876 30.7274 42.3826 30.7274 41.8966V41.0056C30.7274 40.5601 30.9299 40.1146 31.2539 39.8311C30.9299 39.5476 30.7274 39.1426 30.7274 38.6566V37.7656C30.7274 37.6846 30.7274 37.6036 30.7274 37.5226C29.7149 38.3326 28.3784 38.8186 26.9609 38.8186C23.6399 38.8186 20.9264 36.1051 20.9264 32.7841C20.9264 29.4631 23.6399 26.7496 26.9609 26.7496C30.2819 26.7496 32.9954 29.4631 32.9954 32.7841C32.9954 34.0801 32.5904 35.2546 31.9019 36.2266C32.0234 36.1861 32.1449 36.1861 32.2664 36.1861H40.4879C40.6499 35.4166 40.7309 34.5661 40.7309 33.7156C40.7309 28.7341 38.0174 23.5501 33.6839 20.5531C33.4814 20.5936 33.3194 20.6341 33.1169 20.6341H21.0884C20.8454 20.6341 20.5619 20.5936 20.3594 20.5126C16.1069 23.4286 13.2314 28.4911 13.2314 33.7156C13.2314 35.7406 13.7174 37.6846 14.6489 39.4261H21.6959C22.5869 39.4261 23.2754 40.1551 23.2754 41.0056V41.8966C23.2754 42.3421 23.0729 42.7876 22.7489 43.0711C23.0729 43.3546 23.2754 43.8001 23.2754 44.2456V45.1366C23.2754 45.2176 23.2754 45.2986 23.2349 45.3796C23.4374 45.4201 23.6399 45.4606 23.8424 45.5011H22.3439C22.3844 45.3796 22.4249 45.2581 22.4249 45.1366V44.2456C22.4249 43.8406 22.1009 43.4761 21.6554 43.4761H19.7924V45.5011H18.9824V43.4761H16.4714V45.5011H15.6614V43.4761H13.1504V45.5011H12.3404V43.4761H10.5179C10.1129 43.4761 9.7484 43.8001 9.7484 44.2456V45.1366C9.7484 45.2581 9.7889 45.3796 9.8699 45.5011C9.6674 45.5416 9.5459 45.7036 9.5459 45.9061C9.5459 46.1491 9.7079 46.3111 9.9509 46.3111H43.8089C44.0519 46.3111 44.2139 46.1491 44.2139 45.9061C44.2139 45.7846 44.1734 45.7036 44.0924 45.6226C44.2139 45.5011 44.2544 45.3391 44.2544 45.1366V44.2456C44.2544 43.8001 43.8899 43.4761 43.4849 43.4761Z" fill="white"/>
<path d="M38.3003 40.1962H40.8113V42.6262H38.3003V40.1962Z" fill="white"/>
<path d="M34.1696 36.9558H32.3066C31.9016 36.9558 31.5371 37.2798 31.5371 37.7253V38.6163C31.5371 39.0213 31.8611 39.3858 32.3066 39.3858H34.1696V36.9558Z" fill="white"/>
<path d="M34.9805 36.9558H37.4915V39.3858H34.9805V36.9558Z" fill="white"/>
<path d="M43.4846 36.9558H41.6216V39.3858H43.4846C43.8896 39.3858 44.2541 39.0618 44.2541 38.6163V37.7253C44.2541 37.3203 43.8896 36.9558 43.4846 36.9558Z" fill="white"/>
<path d="M43.4846 40.1962H41.6216V42.6262H43.4846C43.8896 42.6262 44.2541 42.3022 44.2541 41.8567V40.9657C44.2541 40.5607 43.8896 40.1962 43.4846 40.1962Z" fill="white"/>
<path d="M31.5371 40.9657V41.8567C31.5371 42.2617 31.8611 42.6262 32.3066 42.6262H34.1696V40.1962H32.3066C31.9016 40.1962 31.5371 40.5607 31.5371 40.9657Z" fill="white"/>
<path d="M34.9805 40.1962H37.4915V42.6262H34.9805V40.1962Z" fill="white"/>
<path d="M22.4645 41.8968V41.0058C22.4645 40.6008 22.1405 40.2363 21.695 40.2363H19.832V42.6663H21.695C22.1 42.6663 22.4645 42.3018 22.4645 41.8968Z" fill="white"/>
<path d="M13.1909 40.1962H15.7019V42.6262H13.1909V40.1962Z" fill="white"/>
<path d="M16.5112 40.1962H19.0222V42.6262H16.5112V40.1962Z" fill="white"/>
<path d="M10.5185 42.6663H12.3815V40.2363H10.5185C10.1135 40.2363 9.74902 40.5603 9.74902 41.0058V41.8968C9.74902 42.3018 10.1135 42.6663 10.5185 42.6663Z" fill="white"/>
</svg>
