<svg width="54" height="54" viewBox="0 0 54 54" fill="none" xmlns="http://www.w3.org/2000/svg">
<path d="M25.7441 20.8829C25.7441 21.2879 25.8656 21.6524 26.0681 21.9359C26.3111 22.2599 26.5946 22.4624 26.9996 22.6244C27.4046 22.7864 27.8906 22.8674 28.4171 22.8674C28.9436 22.8674 29.4296 22.7864 29.8346 22.6244C30.2396 22.4624 30.5636 22.2194 30.7661 21.9359C31.0091 21.6119 31.0901 21.2879 31.0901 20.8829C31.0901 20.4374 30.9686 20.0729 30.6851 19.7489C30.4421 19.4249 30.0776 19.2224 29.5916 19.1009C29.9966 18.9794 30.3206 18.7769 30.5231 18.4934C30.7661 18.2099 30.8876 17.8454 30.8876 17.4809C30.8876 17.1164 30.7661 16.7519 30.5636 16.4684C30.3611 16.1849 30.0371 15.9419 29.6726 15.7799C29.3081 15.6179 28.8626 15.5369 28.3766 15.5369C27.8906 15.5369 27.4451 15.6179 27.0806 15.7799C26.7161 15.9419 26.3921 16.1444 26.1896 16.4684C25.9871 16.7519 25.8656 17.1164 25.8656 17.4809C25.8656 17.8454 25.9871 18.2099 26.2301 18.4934C26.4731 18.7769 26.7971 18.9794 27.1616 19.1414C26.7161 19.2629 26.3516 19.4654 26.0681 19.7894C25.8656 20.0729 25.7441 20.4374 25.7441 20.8829ZM27.1211 17.6429C27.1211 17.3189 27.2426 17.0354 27.4451 16.8734C27.6881 16.7114 27.9716 16.5899 28.3766 16.5899C28.7816 16.5899 29.0651 16.6709 29.3081 16.8734C29.5511 17.0354 29.6321 17.3189 29.6321 17.6429C29.6321 17.9669 29.5106 18.2099 29.2676 18.4124C29.0246 18.6149 28.7411 18.7364 28.3361 18.8174C27.9311 18.7769 27.6476 18.6149 27.4046 18.4124C27.2426 18.2099 27.1211 17.9669 27.1211 17.6429ZM27.3641 19.9919C27.6476 19.7894 27.9716 19.6679 28.4171 19.5869C28.8626 19.6274 29.2271 19.7894 29.4701 19.9919C29.7536 20.1944 29.8751 20.4779 29.8751 20.8019C29.8751 21.1664 29.7536 21.4094 29.4701 21.6119C29.2271 21.8144 28.8626 21.8954 28.4171 21.8954C27.9716 21.8954 27.6071 21.8144 27.3641 21.6119C27.1211 21.4094 26.9591 21.1664 26.9591 20.8019C26.9591 20.4779 27.0806 20.1944 27.3641 19.9919Z" fill="white"/>
<path d="M38.2578 30.7661H33.2358V31.8191H36.8403L33.6003 37.9346H34.9773L38.2578 31.7381V30.7661Z" fill="white"/>
<path d="M43.8064 43.8464H38.5414C42.6319 42.6314 45.6289 38.8649 45.6289 34.3694C45.6289 29.6714 42.3484 25.7429 37.9744 24.7304C37.5694 24.6494 37.1644 24.5684 36.7594 24.5279C36.4354 24.4874 36.0709 24.4874 35.7469 24.4874C33.3574 24.4874 31.1704 25.3379 29.4289 26.7554V41.9834C30.4414 42.8339 31.6564 43.4819 32.9524 43.8464H28.4569C28.5784 43.6844 28.6594 43.4819 28.6594 43.2794V26.5934C28.6594 26.0669 28.2139 25.6619 27.7279 25.6619H11.0014C10.4749 25.6619 10.0699 26.0669 10.0699 26.5934V43.2794C10.0699 43.4819 10.1509 43.6844 10.2724 43.8464H9.90793C9.66493 43.8464 9.50293 44.0084 9.50293 44.2514C9.50293 44.4944 9.66493 44.6564 9.90793 44.6564H43.7659C44.0089 44.6564 44.1709 44.4944 44.1709 44.2514C44.1709 44.0084 44.0089 43.8464 43.8064 43.8464ZM29.9554 34.3694C29.9554 31.1699 32.5474 28.5374 35.7874 28.5374C38.9869 28.5374 41.6194 31.1294 41.6194 34.3694C41.6194 37.5689 39.0274 40.1609 35.7874 40.1609C32.5474 40.1609 29.9554 37.5689 29.9554 34.3694ZM26.8774 42.4694H11.8114V30.4409H26.8774V42.4694ZM11.8114 27.4034H26.8774V29.6714H11.8114V27.4034Z" fill="white"/>
<path d="M8.2073 43.8475H7.5593C7.3163 43.8475 7.1543 44.0095 7.1543 44.2525C7.1543 44.4955 7.3163 44.6575 7.5593 44.6575H8.2073C8.4503 44.6575 8.6123 44.4955 8.6123 44.2525C8.6123 44.0095 8.4503 43.8475 8.2073 43.8475Z" fill="white"/>
<path d="M46.4394 43.8475H45.3864C45.1434 43.8475 44.9814 44.0095 44.9814 44.2525C44.9814 44.4955 45.1434 44.6575 45.3864 44.6575H46.4394C46.6824 44.6575 46.8444 44.4955 46.8444 44.2525C46.8444 44.0095 46.6419 43.8475 46.4394 43.8475Z" fill="white"/>
<path d="M20.2763 24.8117H26.8778C25.3388 24.3662 24.0023 23.3132 23.2328 21.7742C21.8153 18.8987 22.9898 15.4157 25.8653 13.9982C28.7408 12.5807 32.2238 13.7552 33.6413 16.6712C35.0588 19.5467 33.8843 23.0297 31.0088 24.4472C30.2393 24.8522 29.3888 25.0142 28.5383 25.0547C28.8623 25.2167 29.1458 25.5002 29.2673 25.8647C31.1303 24.4472 33.3983 23.6777 35.7473 23.6777C36.1118 23.6777 36.5168 23.7182 36.8408 23.7182C36.9623 23.7182 37.0838 23.7587 37.2053 23.7587C38.5823 21.0857 38.7038 17.8052 37.2863 14.8487C34.8563 9.98875 28.9433 7.96375 24.0428 10.3532C19.1423 12.7427 17.1173 18.6962 19.5473 23.5967C19.7498 24.0422 19.9928 24.4472 20.2763 24.8117Z" fill="white"/>
<path d="M14.0801 31.0886H16.2266V33.2351H14.0801V31.0886Z" fill="white"/>
<path d="M22.4639 31.0886H24.6104V33.2351H22.4639V31.0886Z" fill="white"/>
<path d="M18.292 31.0886H20.4385V33.2351H18.292V31.0886Z" fill="white"/>
<path d="M14.0801 34.8558H16.2266V37.0023H14.0801V34.8558Z" fill="white"/>
<path d="M22.4639 34.8558H24.6104V37.0023H22.4639V34.8558Z" fill="white"/>
<path d="M18.292 34.8558H20.4385V37.0023H18.292V34.8558Z" fill="white"/>
<path d="M14.0801 38.7037H16.2266V40.8502H14.0801V38.7037Z" fill="white"/>
<path d="M22.4639 38.7037H24.6104V40.8502H22.4639V38.7037Z" fill="white"/>
<path d="M18.292 38.7037H20.4385V40.8502H18.292V38.7037Z" fill="white"/>
</svg>
