<svg width="54" height="54" viewBox="0 0 54 54" fill="none" xmlns="http://www.w3.org/2000/svg">
<path d="M43.8103 44.6983H33.8068C34.4548 44.6983 35.0218 44.6578 35.5888 44.5363V41.7823H31.9438V44.5363C32.4703 44.6173 33.1183 44.6983 33.7663 44.6983H24.4513C24.9373 44.6983 25.3828 44.4958 25.7068 44.1718C26.0308 43.8478 26.2333 43.3618 26.2333 42.8758V42.8353V42.7948C26.1928 41.8228 25.3828 41.0938 24.4108 41.0938H12.0988C11.6128 41.0938 11.1673 41.2963 10.8028 41.6203C10.4788 41.9443 10.2763 42.4303 10.2763 42.9163C10.2763 43.9288 11.0863 44.7388 12.0583 44.7388H9.91184C9.66884 44.7388 9.50684 44.9008 9.50684 45.1438C9.50684 45.3868 9.66884 45.5488 9.91184 45.5488H43.7698C44.0128 45.5488 44.1748 45.3868 44.1748 45.1438C44.1748 44.9008 44.0128 44.6983 43.8103 44.6983Z" fill="white"/>
<path d="M8.21071 44.6962H7.56271C7.31971 44.6962 7.15771 44.8582 7.15771 45.1012C7.15771 45.3442 7.31971 45.5062 7.56271 45.5062H8.21071C8.45371 45.5062 8.61571 45.3442 8.61571 45.1012C8.61571 44.8582 8.45371 44.6962 8.21071 44.6962Z" fill="white"/>
<path d="M46.4429 44.6962H45.3899C45.1469 44.6962 44.9849 44.8582 44.9849 45.1012C44.9849 45.3442 45.1469 45.5062 45.3899 45.5062H46.4429C46.6859 45.5062 46.8479 45.3442 46.8479 45.1012C46.8479 44.8582 46.6454 44.6962 46.4429 44.6962Z" fill="white"/>
<path d="M22.4666 18.292L19.4291 15.2545L16.3916 18.292L19.4291 21.3295L22.4666 18.292Z" fill="white"/>
<path d="M41.3401 27.9292L43.2841 25.9852C42.5551 24.9727 41.8666 24.2437 40.6921 23.3932L38.7886 25.3777L41.3401 27.9292Z" fill="white"/>
<path d="M12.7471 16.4293V20.1553C12.7471 20.3983 12.5851 20.5603 12.3421 20.5603H9.91211C10.1551 21.5728 10.5601 22.5448 11.0866 23.4358L12.8281 21.6943C12.9091 21.6133 12.9901 21.5728 13.1116 21.5728C13.2331 21.5728 13.3141 21.6133 13.3951 21.6943L16.0276 24.3268C16.1086 24.4078 16.1491 24.4888 16.1491 24.6103C16.1491 24.7318 16.1086 24.8128 16.0276 24.8938L14.2861 26.6353C15.1771 27.2023 16.1491 27.5668 17.1616 27.8098V25.3798C17.1616 25.1368 17.3236 24.9748 17.5666 24.9748H21.2926C21.5356 24.9748 21.6976 25.1368 21.6976 25.3798V27.8098C21.9406 27.7693 22.1431 27.6883 22.3456 27.6073C22.6291 26.9593 22.9936 26.3518 23.3986 25.7443C23.4391 25.7038 23.4796 25.6228 23.5201 25.5823L22.8316 24.8938C22.6696 24.7318 22.6696 24.4888 22.8316 24.3268L25.4641 21.6943C25.5451 21.6133 25.6261 21.5728 25.7476 21.5728C25.8691 21.5728 25.9501 21.6133 26.0311 21.6943L26.8006 22.4638C27.4081 22.0588 28.0561 21.6943 28.7446 21.4108C28.8256 21.1273 28.9066 20.8438 28.9876 20.6008H26.5576C26.3146 20.6008 26.1526 20.4388 26.1526 20.1958V16.4698C26.1526 16.2268 26.3146 16.0648 26.5576 16.0648H28.9876C28.7446 15.0523 28.3396 14.0803 27.8131 13.1893L26.0716 14.9308C25.9906 15.0118 25.8691 15.0523 25.7881 15.0523C25.6666 15.0523 25.5856 15.0118 25.5046 14.9308L22.8721 12.2983C22.7101 12.1363 22.7101 11.8933 22.8721 11.7313L24.5731 9.94928C23.6821 9.38228 22.7101 8.97728 21.6976 8.77478V11.2048C21.6976 11.4478 21.5356 11.6098 21.2926 11.6098H17.5666C17.3236 11.6098 17.1616 11.4478 17.1616 11.2048V8.77478C16.1491 9.01778 15.1771 9.42278 14.2861 9.94928L16.0276 11.6908C16.1086 11.7718 16.1491 11.8528 16.1491 11.9743C16.1491 12.0958 16.1086 12.1768 16.0276 12.2578L13.3951 14.8903C13.3141 14.9713 13.1926 15.0118 13.1116 15.0118C13.0306 15.0118 12.9091 14.9713 12.8281 14.8903L11.0866 13.1488C10.5196 14.0398 10.1146 15.0118 9.91211 16.0243H12.3826C12.5446 16.0243 12.7471 16.2268 12.7471 16.4293ZM19.4296 13.2703C22.1836 13.2703 24.4516 15.5383 24.4516 18.2923C24.4516 21.0868 22.1836 23.3143 19.4296 23.3143C16.6351 23.3143 14.4076 21.0463 14.4076 18.2923C14.4076 15.5383 16.6351 13.2703 19.4296 13.2703Z" fill="white"/>
<path d="M23.6821 24.6089L24.0061 24.9329C24.1681 24.7304 24.3301 24.5684 24.4921 24.4064C24.9781 23.8799 25.5046 23.3534 26.1121 22.9079L25.7476 22.5434L23.6821 24.6089Z" fill="white"/>
<path d="M24.5721 25.5802C24.4911 25.7017 24.3696 25.8232 24.2886 25.9447L26.2326 27.8887L28.8246 25.3372L26.8806 23.3932C25.8681 24.1222 25.2606 24.6892 24.5721 25.5802Z" fill="white"/>
<path d="M20.8867 8.61173C19.9147 8.44973 18.9832 8.44973 17.9707 8.61173V10.7987H20.8867V8.61173Z" fill="white"/>
<path d="M9.70955 19.3859C9.70955 19.5074 9.75005 19.6289 9.75005 19.7504H11.937V16.8344H9.75005C9.75005 16.9559 9.70955 17.0774 9.70955 17.1989C9.70955 17.2799 9.70955 17.3609 9.66905 17.4419C9.62855 18.0494 9.62855 18.5354 9.66905 19.1024C9.66905 19.2239 9.66905 19.3049 9.70955 19.3859Z" fill="white"/>
<path d="M25.7476 14.0382L27.2866 12.4992C26.6791 11.6487 26.0311 11.0412 25.2211 10.4337L23.6821 11.9727L25.7476 14.0382Z" fill="white"/>
<path d="M26.9219 19.7504H29.1089C29.2709 18.6974 29.2709 17.8064 29.1089 16.8344H26.9219V19.7504Z" fill="white"/>
<path d="M15.1777 11.9727L13.6387 10.4337C13.5577 10.5147 13.4362 10.5957 13.3552 10.6362C12.6667 11.1627 12.1807 11.6487 11.5732 12.4587L13.1122 13.9977L15.1777 11.9727Z" fill="white"/>
<path d="M22.1425 34.7336H24.8965V31.0886H22.1425V31.1291C22.102 31.4126 22.0615 31.6961 22.0615 31.9796V32.0606C22.021 32.3441 22.021 32.6276 22.021 32.9516C22.021 33.2351 22.021 33.5591 22.0615 33.8426V33.8831C22.0615 34.1261 22.102 34.4096 22.1425 34.7336Z" fill="white"/>
<path d="M31.2148 33.7219C32.2273 35.0584 33.9283 36.0304 33.9283 36.0304C33.9283 36.0304 35.4673 35.0584 36.4393 33.6814C36.5608 33.5194 36.6418 33.3979 36.7633 33.2359C37.0468 32.7499 37.2493 32.1829 37.2493 31.6564C37.2493 30.6439 36.3988 29.8339 35.3863 29.8339C34.6978 29.8339 34.1308 30.1984 33.8473 30.7654C33.5233 30.2389 32.9158 29.9149 32.2678 29.9149C31.2553 29.9149 30.4453 30.7654 30.4453 31.7779C30.4453 32.3044 30.6478 32.8309 30.9313 33.2764C30.9718 33.3979 31.0933 33.5599 31.2148 33.7219Z" fill="white"/>
<path d="M35.6294 21.2881C35.5889 21.2881 35.5484 21.2881 35.5079 21.2881C34.4144 21.1261 33.2399 21.1261 31.9844 21.3286V24.0826H35.6294V21.2881Z" fill="white"/>
<path d="M38.7886 40.445L40.7326 42.389C41.8261 41.579 42.5956 40.8095 43.3246 39.8375L41.3806 37.8935L38.7886 40.445Z" fill="white"/>
<path d="M20.5222 28.0119C20.6437 28.0119 20.7652 27.9714 20.8867 27.9714V25.7844H17.9707V27.9714C18.9022 28.1334 19.7122 28.1334 20.5222 28.0119Z" fill="white"/>
<path d="M27.5292 22.9475L29.6757 25.094C29.7567 25.175 29.7972 25.256 29.7972 25.3775C29.7972 25.499 29.7567 25.58 29.6757 25.661L26.5167 28.82C26.4357 28.901 26.3142 28.9415 26.2332 28.9415C26.1522 28.9415 26.0307 28.901 25.9497 28.82L23.8032 26.6735C23.4792 27.1595 23.2362 27.6455 22.9932 28.172C22.7097 28.8605 22.4667 29.549 22.3047 30.278H25.3422C25.5852 30.278 25.7472 30.44 25.7472 30.683V35.138C25.7472 35.381 25.5852 35.543 25.3422 35.543H22.3047C22.3047 35.624 22.3452 35.705 22.3857 35.786H24.4107C25.4637 35.786 26.3547 36.3935 26.8002 37.2845L29.6757 40.16C29.7567 40.241 29.7972 40.322 29.7972 40.4435C29.7972 40.565 29.7567 40.646 29.6757 40.727L27.5292 42.8735C28.6632 43.6025 29.8782 44.0885 31.1742 44.372V41.3345C31.1742 41.0915 31.3362 40.9295 31.5792 40.9295H36.0342C36.2772 40.9295 36.4392 41.0915 36.4392 41.3345V44.372C37.7352 44.0885 38.9502 43.562 40.0842 42.8735L37.8972 40.7675C37.7352 40.6055 37.7352 40.3625 37.8972 40.2005L41.0562 37.0415C41.1372 36.9605 41.2182 36.92 41.3397 36.92C41.4612 36.92 41.5422 36.9605 41.6232 37.0415L43.7697 39.188C44.4582 38.054 44.9847 36.839 45.2682 35.543H42.2307C41.9877 35.543 41.8257 35.381 41.8257 35.138V30.683C41.8257 30.44 41.9877 30.278 42.2307 30.278H45.2682C44.9847 28.982 44.4582 27.767 43.7697 26.633L41.6232 28.7795C41.5422 28.8605 41.4207 28.901 41.3397 28.901C41.2182 28.901 41.1372 28.8605 41.0562 28.7795L37.8972 25.6205C37.7352 25.4585 37.7352 25.2155 37.8972 25.0535L40.0437 22.907C38.9097 22.178 37.6947 21.692 36.3987 21.4085V24.446C36.3987 24.689 36.2367 24.851 35.9937 24.851H31.5387C31.2957 24.851 31.1337 24.689 31.1337 24.446V21.4085C30.4857 21.5705 29.8377 21.773 29.1897 22.016C29.1897 22.016 29.1897 22.016 29.1492 22.016C28.6227 22.2995 28.0557 22.583 27.5292 22.9475ZM33.8067 26.9165C37.1277 26.9165 39.8007 29.63 39.8007 32.9105C39.8007 36.2315 37.0872 38.9045 33.8067 38.9045C30.4857 38.9045 27.8127 36.191 27.8127 32.9105C27.7722 29.5895 30.4857 26.9165 33.8067 26.9165Z" fill="white"/>
<path d="M42.6357 34.7336H45.3897V34.6931C45.5517 33.5996 45.5922 32.3846 45.3897 31.2101C45.3897 31.1696 45.3897 31.1291 45.3897 31.0886H42.6357V34.7336Z" fill="white"/>
<path d="M26.9616 42.3071L28.7841 40.4846L27.0021 38.7026C26.9211 39.3101 26.6781 39.8771 26.2326 40.2821C26.1111 40.4036 25.9491 40.5251 25.7871 40.6466C26.3946 41.0111 26.8401 41.5781 26.9616 42.3071Z" fill="white"/>
<path d="M13.5982 26.1884L15.1372 24.6494L13.1122 22.5434L11.5732 24.0824C12.1402 24.8924 12.7072 25.4999 13.5982 26.1884Z" fill="white"/>
<path d="M10.3164 38.4185C10.3164 39.431 11.1264 40.241 12.1389 40.241H24.4509C24.9369 40.241 25.3824 40.0385 25.7064 39.7145C26.0304 39.3905 26.2329 38.9045 26.2329 38.4185C26.2329 37.406 25.4229 36.596 24.4104 36.596H12.0984C11.6124 36.596 11.1669 36.7985 10.8024 37.1225C10.4784 37.487 10.3164 37.9325 10.3164 38.4185Z" fill="white"/>
</svg>
