<svg width="54" height="48" viewBox="0 0 54 48" fill="none" xmlns="http://www.w3.org/2000/svg">
<rect width="54" height="48" rx="3" fill="#E74B4A"/>
<path d="M17.1953 16.7031V31H15.3887V18.959L11.7461 20.2871V18.6562L16.9121 16.7031H17.1953ZM31.4727 27.1523C31.4727 28.0182 31.2708 28.7539 30.8672 29.3594C30.4701 29.9583 29.9297 30.4141 29.2461 30.7266C28.569 31.0391 27.804 31.1953 26.9512 31.1953C26.0983 31.1953 25.3301 31.0391 24.6465 30.7266C23.9629 30.4141 23.4225 29.9583 23.0254 29.3594C22.6283 28.7539 22.4297 28.0182 22.4297 27.1523C22.4297 26.5859 22.5371 26.0684 22.752 25.5996C22.9733 25.1243 23.2826 24.7109 23.6797 24.3594C24.0833 24.0078 24.5586 23.7376 25.1055 23.5488C25.6589 23.3535 26.2676 23.2559 26.9316 23.2559C27.804 23.2559 28.582 23.4251 29.2656 23.7637C29.9492 24.0957 30.4863 24.5547 30.877 25.1406C31.2741 25.7266 31.4727 26.3971 31.4727 27.1523ZM29.6562 27.1133C29.6562 26.5859 29.5423 26.1204 29.3145 25.7168C29.0866 25.3066 28.7676 24.9876 28.3574 24.7598C27.9473 24.5319 27.472 24.418 26.9316 24.418C26.3783 24.418 25.8997 24.5319 25.4961 24.7598C25.099 24.9876 24.7897 25.3066 24.5684 25.7168C24.347 26.1204 24.2363 26.5859 24.2363 27.1133C24.2363 27.6602 24.3438 28.1289 24.5586 28.5195C24.7799 28.9036 25.0924 29.1999 25.4961 29.4082C25.9062 29.61 26.3913 29.7109 26.9512 29.7109C27.5111 29.7109 27.9928 29.61 28.3965 29.4082C28.8001 29.1999 29.1094 28.9036 29.3242 28.5195C29.5456 28.1289 29.6562 27.6602 29.6562 27.1133ZM31.1406 20.4824C31.1406 21.1725 30.9583 21.7943 30.5938 22.3477C30.2292 22.901 29.7311 23.3372 29.0996 23.6562C28.4681 23.9753 27.752 24.1348 26.9512 24.1348C26.1374 24.1348 25.4115 23.9753 24.7734 23.6562C24.1419 23.3372 23.6471 22.901 23.2891 22.3477C22.931 21.7943 22.752 21.1725 22.752 20.4824C22.752 19.6556 22.931 18.9525 23.2891 18.373C23.6536 17.7936 24.1517 17.3509 24.7832 17.0449C25.4147 16.7389 26.1341 16.5859 26.9414 16.5859C27.7552 16.5859 28.4779 16.7389 29.1094 17.0449C29.7409 17.3509 30.2357 17.7936 30.5938 18.373C30.9583 18.9525 31.1406 19.6556 31.1406 20.4824ZM29.334 20.5117C29.334 20.0365 29.2331 19.6165 29.0312 19.252C28.8294 18.8874 28.5495 18.6009 28.1914 18.3926C27.8333 18.1777 27.4167 18.0703 26.9414 18.0703C26.4661 18.0703 26.0495 18.1712 25.6914 18.373C25.3398 18.5684 25.0632 18.8483 24.8613 19.2129C24.666 19.5775 24.5684 20.0104 24.5684 20.5117C24.5684 21 24.666 21.4264 24.8613 21.791C25.0632 22.1556 25.3431 22.4388 25.7012 22.6406C26.0592 22.8424 26.4759 22.9434 26.9512 22.9434C27.4264 22.9434 27.8398 22.8424 28.1914 22.6406C28.5495 22.4388 28.8294 22.1556 29.0312 21.791C29.2331 21.4264 29.334 21 29.334 20.5117ZM43.084 23.373V25.0723H33.3379V23.373H43.084ZM39.1191 19.2227V29.5742H37.3125V19.2227H39.1191Z" fill="white"/>
</svg>
