<svg width="15" height="14" viewBox="0 0 15 14" fill="none" xmlns="http://www.w3.org/2000/svg">
<g clip-path="url(#clip0_207_75)">
<path d="M10.7217 8.97557C10.6063 8.97557 10.4935 8.9388 10.3976 8.86989C10.3017 8.80099 10.2269 8.70305 10.1828 8.58847C10.1386 8.47388 10.1271 8.3478 10.1496 8.22615C10.1721 8.10451 10.2276 7.99278 10.3092 7.90508C10.3908 7.81738 10.4947 7.75765 10.6079 7.73346C10.7211 7.70926 10.8383 7.72168 10.9449 7.76914C11.0515 7.81661 11.1426 7.89698 11.2067 8.0001C11.2708 8.10323 11.305 8.22447 11.305 8.34849C11.305 8.5148 11.2436 8.67431 11.1342 8.79191C11.0248 8.90951 10.8764 8.97557 10.7217 8.97557ZM4.2783 8.97557C4.16293 8.97557 4.05014 8.9388 3.95422 8.86989C3.85829 8.80099 3.78352 8.70305 3.73937 8.58847C3.69522 8.47388 3.68367 8.3478 3.70617 8.22615C3.72868 8.10451 3.78424 7.99278 3.86582 7.90508C3.9474 7.81738 4.05134 7.75765 4.1645 7.73346C4.27765 7.70926 4.39494 7.72168 4.50153 7.76914C4.60812 7.81661 4.69923 7.89698 4.76332 8.0001C4.82742 8.10323 4.86163 8.22447 4.86163 8.34849C4.86163 8.5148 4.80017 8.67431 4.69078 8.79191C4.58138 8.90951 4.43301 8.97557 4.2783 8.97557ZM10.9307 5.20053L12.0959 3.03187C12.1145 3.00217 12.1271 2.96869 12.1332 2.93352C12.1392 2.89834 12.1384 2.86221 12.1309 2.82736C12.1234 2.79252 12.1093 2.7597 12.0895 2.73094C12.0698 2.70218 12.0447 2.67809 12.0159 2.66017C11.9871 2.64225 11.9552 2.63087 11.9222 2.62674C11.8891 2.62262 11.8556 2.62583 11.8238 2.63618C11.7919 2.64653 11.7624 2.6638 11.737 2.68692C11.7116 2.71004 11.6909 2.73852 11.6762 2.77059L10.4964 4.96721C9.55399 4.51284 8.53284 4.27794 7.5 4.27794C6.46716 4.27794 5.44601 4.51284 4.50361 4.96721L3.32382 2.77059C3.30909 2.73852 3.28839 2.71004 3.263 2.68692C3.23761 2.6638 3.20808 2.64653 3.17623 2.63618C3.14438 2.62583 3.1109 2.62262 3.07785 2.62674C3.0448 2.63087 3.01289 2.64225 2.9841 2.66017C2.9553 2.67809 2.93024 2.70218 2.91046 2.73094C2.89068 2.7597 2.8766 2.79252 2.8691 2.82736C2.86159 2.86221 2.86083 2.89834 2.86684 2.93352C2.87285 2.96869 2.88552 3.00217 2.90406 3.03187L4.06927 5.20053C2.06844 6.37031 0.700278 8.54759 0.5 11.1199H14.5C14.2997 8.54759 12.9313 6.37031 10.9307 5.20053Z" fill="#9398A0"/>
</g>
<defs>
<clipPath id="clip0_207_75">
<rect width="14" height="14" fill="white" transform="translate(0.5)"/>
</clipPath>
</defs>
</svg>
