<svg width="40" height="40" viewBox="0 0 40 40" fill="none" xmlns="http://www.w3.org/2000/svg">
<g clip-path="url(#clip0_3288_627)">
<rect width="40" height="40" rx="3" fill="#294F56"/>
<path d="M21.4816 8.60405C21.0886 8.21726 20.556 8 20.0007 8C19.4454 8 18.9128 8.21726 18.5198 8.60405L10.614 16.3923C10.2209 16.7797 10 17.3053 10 17.8532C10 18.4012 10.2209 18.9267 10.614 19.3142C11.0071 19.7017 11.5403 19.9194 12.0962 19.9194C12.6522 19.9194 13.1854 19.7017 13.5785 19.3142L17.9051 15.0511V30.9345C17.9051 31.4823 18.1259 32.0077 18.5189 32.395C18.9119 32.7824 19.4449 33 20.0007 33C20.5565 33 21.0895 32.7824 21.4825 32.395C21.8755 32.0077 22.0963 31.4823 22.0963 30.9345V15.0511L26.4215 19.3142C26.6162 19.5061 26.8472 19.6582 27.1016 19.7621C27.3559 19.8659 27.6285 19.9194 27.9038 19.9194C28.179 19.9194 28.4516 19.8659 28.706 19.7621C28.9603 19.6582 29.1914 19.5061 29.386 19.3142C29.5807 19.1223 29.7351 18.8946 29.8404 18.6439C29.9458 18.3932 30 18.1246 30 17.8532C30 17.5819 29.9458 17.3132 29.8404 17.0626C29.7351 16.8119 29.5807 16.5841 29.386 16.3923L21.4816 8.60405Z" fill="white"/>
</g>
<defs>
<clipPath id="clip0_3288_627">
<rect width="40" height="40" rx="3" fill="white"/>
</clipPath>
</defs>
</svg>
