<svg width="145" height="31" viewBox="0 0 145 31" fill="none" xmlns="http://www.w3.org/2000/svg">
<path d="M14.4371 16.9711C16.2491 16.1355 17.8054 15.3944 18.9263 14.7165C20.0728 13.9845 21.0937 13.0836 21.9518 12.0467C22.8048 10.9931 23.2888 9.70473 23.3339 8.36794C23.4604 6.98218 23.1614 5.59113 22.4742 4.36855C21.7469 3.20546 20.7387 2.22989 19.5358 1.52536C18.2184 0.819181 16.7841 0.339074 15.2968 0.106398C14.5769 -0.000846683 13.8465 -0.0272996 13.1202 0.0275667H13.0604L8.70716 0.358659L6.48158 3.44885V4.19512C6.32924 4.45765 6.21394 4.73868 6.13877 5.03074L6.56865 5.19366L6.65571 7.7005L10.9763 7.11714C11.7544 5.10957 12.9624 4.27921 14.4371 4.52622C14.7646 4.58024 15.0777 4.69684 15.358 4.8692C15.6384 5.04157 15.8802 5.26622 16.0695 5.53C16.3964 6.1179 16.5472 6.78217 16.5048 7.44824C16.4178 8.36794 15.9008 9.28764 15.0356 10.3703C14.0119 11.4477 12.882 12.4263 11.6619 13.2923C10.3919 14.2053 9.06535 15.0425 7.6896 15.7991C6.38908 16.5454 5.44226 17.134 4.83281 17.4651L4.57706 21.3068L21.6906 26.5622L22.0334 21.3068L11.4279 18.3848V18.3007C11.6673 18.1378 12.7067 17.7226 14.4371 16.9711Z" fill="#BF2824"/>
<path d="M17.2877 27.3194L17.7175 21.9798L6.91615 18.9737V18.9107C7.17191 18.8266 8.12417 18.3273 9.94163 17.5758C11.5142 16.8836 13.0424 16.1009 14.5179 15.2319C15.7057 14.517 16.7342 13.5809 17.5434 12.478C18.3823 11.4168 18.8646 10.133 18.9256 8.79921C19.0586 7.375 18.7194 5.94681 17.957 4.72099C17.2451 3.51888 16.1964 2.5352 14.9315 1.88306C13.6183 1.18452 12.1956 0.698107 10.7198 0.443072C9.36247 0.230121 7.97288 0.316358 6.65496 0.695333C5.47849 1.00956 4.40622 1.61245 3.54242 2.44539C2.6494 3.27268 1.99168 4.30787 1.63245 5.4515L6.64408 7.70608C7.42221 5.60391 8.46154 4.69997 9.90898 4.95223C10.2368 5.00361 10.5504 5.11857 10.831 5.29019C11.1116 5.4618 11.3532 5.68651 11.5414 5.95077C11.8682 6.5406 12.019 7.20652 11.9768 7.87425C11.7984 8.98505 11.2524 10.0102 10.4205 10.7963C9.40642 11.8719 8.28555 12.8488 7.07396 13.713C5.80399 14.626 4.47741 15.4632 3.10166 16.2199C1.7304 16.9714 0.778135 17.5548 0.261192 17.8911L0 21.7276L17.2877 27.3194Z" fill="#E74B4A"/>
<path d="M27.4856 16.472L30.1628 7.87412L28.8677 4.53167L27.6597 4.72086C27.6146 4.10829 27.4619 3.50761 27.2081 2.94453L29.2813 1.3679L23.8398 0.616371C22.9187 0.521507 21.9885 0.549803 21.0755 0.700458C19.7144 0.949932 18.419 1.46107 17.2665 2.20351C16.0398 3.03643 14.9843 4.08255 14.1539 5.28845C13.2155 6.57138 12.5412 8.01657 12.1678 9.54535L16.9182 10.7173L22.474 6.53399C22.474 6.70216 22.561 6.95442 22.561 7.20668C22.4573 8.37654 22.1034 9.51289 21.5217 10.5439C20.671 12.1037 19.7187 13.6098 18.6704 15.053C17.4569 16.719 16.2489 18.3902 14.7797 20.1403C13.3105 21.8904 12.2711 23.2305 11.5801 24.166V28.591L16.3251 30.9087L33.0904 18.2956L27.4856 16.472Z" fill="#1E5D65"/>
<path d="M33.1946 22.8152V18.1379L24.1127 21.8955V21.8114C24.3739 21.5591 25.2391 20.3924 26.8824 18.5583C28.4387 16.7189 29.6467 15.2158 30.5119 13.965C31.3379 12.7864 32.0328 11.5269 32.5851 10.2074C33.083 9.0397 33.3471 7.79136 33.3632 6.52861C33.4293 5.38399 33.1271 4.24766 32.498 3.27549C31.9359 2.44534 31.0719 1.849 30.0766 1.60426C28.8639 1.28025 27.587 1.25136 26.36 1.52018C24.9172 1.79761 23.5406 2.33228 22.3007 3.09681C20.9713 3.96535 19.8262 5.07132 18.9269 6.35518C17.9836 7.71107 17.2879 9.2131 16.87 10.796L22.8557 10.6278C23.4597 8.121 24.4881 6.70203 25.8812 6.37094C26.1444 6.26501 26.435 6.23996 26.7134 6.2992C26.9919 6.35845 27.2447 6.4991 27.4374 6.70203C27.7943 7.19792 27.9634 7.79737 27.9163 8.39954C27.8361 9.63739 27.4519 10.839 26.7953 11.9049C25.9194 13.5479 24.938 15.1363 23.8569 16.6611C22.6435 18.4164 21.2613 20.1665 19.7921 22.0059C18.2358 23.9241 17.1149 25.3431 16.4238 26.1787V30.7719L33.1946 22.8152Z" fill="#32909D"/>
<path d="M47.5182 7.62875C47.3796 7.62875 47.3103 7.70153 47.3103 7.84708V17.6962C47.3103 17.8417 47.3796 17.9145 47.5182 17.9145H54.7032C55.5195 17.9145 56.2125 18.0601 56.7824 18.3512C57.3677 18.6261 57.8528 19.0142 58.2379 19.5156C58.6229 20.0008 58.931 20.5749 59.162 21.238C59.393 21.8849 59.5778 22.5803 59.7164 23.3242H41.5809V6.90099C41.5809 6.18939 41.7195 5.55058 41.9967 4.98454C42.274 4.40233 42.6359 3.90906 43.0825 3.50475C43.5446 3.10043 44.0683 2.78507 44.6535 2.55865C45.2542 2.33224 45.8703 2.21903 46.5017 2.21903H59.7164C59.5778 2.9468 59.393 3.64222 59.162 4.30529C58.931 4.96837 58.6152 5.55058 58.2148 6.05193C57.8297 6.55328 57.3523 6.94951 56.7824 7.24061C56.2125 7.53172 55.5195 7.67727 54.7032 7.67727L47.5182 7.62875Z" fill="white"/>
<path d="M72.1283 18.0115C72.1283 17.6234 72.1437 17.2433 72.1745 16.8714C72.2053 16.4832 72.2207 16.1032 72.2207 15.7312C72.2207 15.5695 72.1437 15.4886 71.9897 15.4886H65.8213C65.6673 15.4886 65.5903 15.5695 65.5903 15.7312V18.6665C65.5903 19.5237 65.4132 20.2434 65.0589 20.8256C64.7201 21.3916 64.2734 21.8606 63.719 22.2326C63.1799 22.5884 62.5715 22.8552 61.8939 23.0331C61.2162 23.211 60.5385 23.3404 59.8608 23.4213V6.92525C59.8608 6.21365 59.9994 5.57484 60.2767 5.0088C60.5539 4.42658 60.9159 3.93332 61.3625 3.52901C61.8246 3.10852 62.3482 2.78507 62.9335 2.55865C63.5342 2.33224 64.1502 2.21903 64.7817 2.21903H77.9502V23.4213C77.1339 23.3242 76.3715 23.1706 75.663 22.9603C74.9546 22.7501 74.3385 22.4509 73.8148 22.0628C73.2912 21.6585 72.8753 21.1328 72.5673 20.4859C72.2746 19.8229 72.1283 18.9981 72.1283 18.0115ZM72.2207 7.87134C72.2207 7.70962 72.1437 7.62875 71.9897 7.62875H65.8213C65.6673 7.62875 65.5903 7.70962 65.5903 7.87134V9.86057C65.5903 10.0061 65.6673 10.0789 65.8213 10.0789H71.9897C72.1437 10.0789 72.2207 10.0061 72.2207 9.86057V7.87134Z" fill="white"/>
<path d="M93.0003 23.3242H79.7856C79.9242 22.5803 80.109 21.8849 80.3401 21.238C80.5711 20.5749 80.8791 20.0008 81.2642 19.5156C81.6492 19.0142 82.1267 18.6261 82.6965 18.3512C83.2818 18.0601 83.9826 17.9145 84.7989 17.9145H91.9838C92.1224 17.9145 92.1917 17.8417 92.1917 17.6962V15.707C92.1917 15.5452 92.1224 15.4644 91.9838 15.4644H79.878V6.90099C79.878 6.18939 80.0166 5.55058 80.2938 4.98454C80.5711 4.40233 80.933 3.90906 81.3797 3.50475C81.8417 3.10043 82.3654 2.78507 82.9507 2.55865C83.5513 2.33224 84.1674 2.21903 84.7989 2.21903H98.0136C97.875 2.9468 97.6901 3.64222 97.4591 4.30529C97.2281 4.96837 96.9123 5.55058 96.5119 6.05193C96.1269 6.55328 95.6494 6.94951 95.0795 7.24061C94.5097 7.53172 93.8166 7.67727 93.0003 7.67727L85.8154 7.62875C85.6768 7.62875 85.6075 7.70153 85.6075 7.84708V9.83631C85.6075 9.99803 85.6768 10.0789 85.8154 10.0789H97.9212V18.6423C97.9212 19.3377 97.7825 19.9765 97.5053 20.5587C97.2281 21.1409 96.8584 21.6342 96.3964 22.0385C95.9497 22.4428 95.4261 22.7582 94.8254 22.9846C94.2401 23.211 93.6318 23.3242 93.0003 23.3242Z" fill="white"/>
<path d="M99.286 23.4455V6.87673C99.286 6.26217 99.4092 5.70422 99.6557 5.20287C99.8867 4.68535 100.202 4.21634 100.603 3.79585C100.88 3.50475 101.196 3.26216 101.55 3.06809C101.904 2.85785 102.274 2.69612 102.659 2.58291C103.059 2.45353 103.46 2.3565 103.86 2.29181C104.276 2.22712 104.677 2.17051 105.062 2.12199V18.6665C105.062 19.2811 104.938 19.8471 104.692 20.3647C104.461 20.866 104.145 21.3269 103.745 21.7474C103.468 22.0385 103.144 22.2811 102.775 22.4752C102.42 22.6854 102.043 22.8471 101.642 22.9603C101.257 23.0897 100.865 23.1868 100.464 23.2515C100.064 23.3323 99.6711 23.397 99.286 23.4455Z" fill="white"/>
<path d="M119.322 23.4213V7.87134C119.322 7.70962 119.245 7.62875 119.091 7.62875H112.923C112.769 7.62875 112.692 7.70962 112.692 7.87134V18.6665C112.692 19.5237 112.515 20.2434 112.16 20.8256C111.821 21.3916 111.375 21.8606 110.82 22.2326C110.281 22.5884 109.673 22.8552 108.995 23.0331C108.318 23.211 107.64 23.3404 106.962 23.4213V6.92525C106.962 6.21365 107.101 5.57484 107.378 5.0088C107.655 4.42658 108.017 3.93332 108.464 3.52901C108.926 3.10852 109.45 2.78507 110.035 2.55865C110.636 2.33224 111.252 2.21903 111.883 2.21903H125.052V18.6665C125.052 19.5237 124.874 20.2434 124.52 20.8256C124.181 21.3916 123.735 21.8606 123.18 22.2326C122.626 22.5884 122.01 22.8552 121.332 23.0331C120.654 23.211 119.984 23.3404 119.322 23.4213Z" fill="white"/>
<path d="M140.079 23.3242H126.957V6.90099C126.957 6.18939 127.095 5.55058 127.373 4.98454C127.65 4.40233 128.012 3.90906 128.459 3.50475C128.921 3.10043 129.444 2.78507 130.029 2.55865C130.63 2.33224 131.246 2.21903 131.878 2.21903H145V18.6423C145 19.3377 144.861 19.9765 144.584 20.5587C144.307 21.1409 143.937 21.6342 143.475 22.0385C143.029 22.4428 142.505 22.7582 141.904 22.9846C141.319 23.211 140.711 23.3242 140.079 23.3242ZM139.271 7.84708C139.271 7.70153 139.201 7.62875 139.063 7.62875H132.894C132.756 7.62875 132.686 7.70153 132.686 7.84708V17.6962C132.686 17.8417 132.756 17.9145 132.894 17.9145H139.063C139.201 17.9145 139.271 17.8417 139.271 17.6962V7.84708Z" fill="white"/>
</svg>
