<svg width="48" height="48" viewBox="0 0 48 48" fill="none" xmlns="http://www.w3.org/2000/svg">
<path d="M42.5863 19.7057H41.8818V17.8818C41.8818 8.0193 33.8625 0 24 0C14.1375 0 6.11822 8.0193 6.11822 17.8818V19.7057H5.41375C2.4222 19.7057 0 22.1279 0 25.1194V31.8456C0 34.8372 2.4222 37.2593 5.41375 37.2593H7.08323C7.57539 40.5404 10.4125 43.0688 13.8287 43.0688H17.3703C17.9493 44.5838 19.4162 45.6647 21.1339 45.6647H23.7008C25.93 45.6647 27.7443 43.8601 27.7443 41.6212C27.7443 39.3824 25.9397 37.5778 23.7008 37.5778H21.1339C19.4162 37.5778 17.959 38.6586 17.3703 40.1737H13.8384C12.0241 40.1737 10.509 38.9288 10.0555 37.2593H11.1653C11.8118 37.2593 12.3329 36.7382 12.3329 36.0917V20.8733C12.3329 20.2268 11.8118 19.7057 11.1653 19.7057H9.01327V17.8818C9.01327 9.62123 15.7394 2.89505 24 2.89505C32.2606 2.89505 38.9867 9.62123 38.9867 17.8818V19.7057H36.8347C36.1882 19.7057 35.6671 20.2268 35.6671 20.8733V36.0917C35.6671 36.7382 36.1882 37.2593 36.8347 37.2593H42.5766C45.5682 37.2593 47.9903 34.8372 47.9903 31.8456V25.1194C48 22.1279 45.5778 19.7057 42.5863 19.7057Z" fill="#5BA8B3"/>
</svg>
